<svg  viewBox="0 0 40 40" xmlns="http://www.w3.org/2000/svg">
<path d="M28.3332 33.3334C27.861 33.3334 27.4651 33.1737 27.1457 32.8542C26.8262 32.5348 26.6665 32.139 26.6665 31.6667V23.3334C26.6665 22.8612 26.8262 22.4654 27.1457 22.1459C27.4651 21.8265 27.861 21.6667 28.3332 21.6667H31.6665C32.1387 21.6667 32.5346 21.8265 32.854 22.1459C33.1735 22.4654 33.3332 22.8612 33.3332 23.3334V31.6667C33.3332 32.139 33.1735 32.5348 32.854 32.8542C32.5346 33.1737 32.1387 33.3334 31.6665 33.3334H28.3332ZM18.3332 33.3334C17.8609 33.3334 17.4651 33.1737 17.1457 32.8542C16.8262 32.5348 16.6665 32.139 16.6665 31.6667V8.33341C16.6665 7.86119 16.8262 7.46536 17.1457 7.14591C17.4651 6.82647 17.8609 6.66675 18.3332 6.66675H21.6665C22.1387 6.66675 22.5346 6.82647 22.854 7.14591C23.1734 7.46536 23.3332 7.86119 23.3332 8.33341V31.6667C23.3332 32.139 23.1734 32.5348 22.854 32.8542C22.5346 33.1737 22.1387 33.3334 21.6665 33.3334H18.3332ZM8.33317 33.3334C7.86095 33.3334 7.46512 33.1737 7.14567 32.8542C6.82623 32.5348 6.6665 32.139 6.6665 31.6667V16.6667C6.6665 16.1945 6.82623 15.7987 7.14567 15.4792C7.46512 15.1598 7.86095 15.0001 8.33317 15.0001H11.6665C12.1387 15.0001 12.5346 15.1598 12.854 15.4792C13.1734 15.7987 13.3332 16.1945 13.3332 16.6667V31.6667C13.3332 32.139 13.1734 32.5348 12.854 32.8542C12.5346 33.1737 12.1387 33.3334 11.6665 33.3334H8.33317Z"/>
</svg>
