<svg viewBox="0 0 40 40" xmlns="http://www.w3.org/2000/svg">
<path d="M20.0001 34.9998C18.1945 34.9998 16.5209 34.5554 14.9792 33.6665C13.4376 32.7776 12.2223 31.5554 11.3334 29.9998H8.33341C7.86119 29.9998 7.46536 29.8401 7.14591 29.5207C6.82647 29.2012 6.66675 28.8054 6.66675 28.3332C6.66675 27.8609 6.82647 27.4651 7.14591 27.1457C7.46536 26.8262 7.86119 26.6665 8.33341 26.6665H10.1667C10.0834 26.1109 10.0348 25.5554 10.0209 24.9998C10.007 24.4443 10.0001 23.8887 10.0001 23.3332H8.33341C7.86119 23.3332 7.46536 23.1734 7.14591 22.854C6.82647 22.5346 6.66675 22.1387 6.66675 21.6665C6.66675 21.1943 6.82647 20.7984 7.14591 20.479C7.46536 20.1596 7.86119 19.9998 8.33341 19.9998H10.0001C10.0001 19.4443 10.007 18.8887 10.0209 18.3332C10.0348 17.7776 10.0834 17.2221 10.1667 16.6665H8.33341C7.86119 16.6665 7.46536 16.5068 7.14591 16.1873C6.82647 15.8679 6.66675 15.4721 6.66675 14.9998C6.66675 14.5276 6.82647 14.1318 7.14591 13.8123C7.46536 13.4929 7.86119 13.3332 8.33341 13.3332H11.3334C11.7223 12.6943 12.1598 12.0971 12.6459 11.5415C13.132 10.9859 13.6945 10.4998 14.3334 10.0832L12.7917 8.49984C12.4862 8.19428 12.3334 7.81234 12.3334 7.354C12.3334 6.89567 12.5001 6.49984 12.8334 6.1665C13.139 5.86095 13.5279 5.70817 14.0001 5.70817C14.4723 5.70817 14.8612 5.86095 15.1667 6.1665L17.5834 8.58317C18.3612 8.33317 19.1529 8.20817 19.9584 8.20817C20.764 8.20817 21.5556 8.33317 22.3334 8.58317L24.8334 6.12484C25.139 5.81928 25.5209 5.6665 25.9792 5.6665C26.4376 5.6665 26.8334 5.83317 27.1667 6.1665C27.4723 6.47206 27.6251 6.86095 27.6251 7.33317C27.6251 7.80539 27.4723 8.19428 27.1667 8.49984L25.5834 10.0832C26.2223 10.4998 26.7987 10.979 27.3126 11.5207C27.8265 12.0623 28.2779 12.6665 28.6667 13.3332H31.6667C32.139 13.3332 32.5348 13.4929 32.8542 13.8123C33.1737 14.1318 33.3334 14.5276 33.3334 14.9998C33.3334 15.4721 33.1737 15.8679 32.8542 16.1873C32.5348 16.5068 32.139 16.6665 31.6667 16.6665H29.8334C29.9167 17.2221 29.9654 17.7776 29.9792 18.3332C29.9931 18.8887 30.0001 19.4443 30.0001 19.9998H31.6667C32.139 19.9998 32.5348 20.1596 32.8542 20.479C33.1737 20.7984 33.3334 21.1943 33.3334 21.6665C33.3334 22.1387 33.1737 22.5346 32.8542 22.854C32.5348 23.1734 32.139 23.3332 31.6667 23.3332H30.0001C30.0001 23.8887 29.9931 24.4443 29.9792 24.9998C29.9654 25.5554 29.9167 26.1109 29.8334 26.6665H31.6667C32.139 26.6665 32.5348 26.8262 32.8542 27.1457C33.1737 27.4651 33.3334 27.8609 33.3334 28.3332C33.3334 28.8054 33.1737 29.2012 32.8542 29.5207C32.5348 29.8401 32.139 29.9998 31.6667 29.9998H28.6667C27.7779 31.5554 26.5626 32.7776 25.0209 33.6665C23.4792 34.5554 21.8056 34.9998 20.0001 34.9998ZM18.3334 26.6665H21.6667C22.139 26.6665 22.5348 26.5068 22.8542 26.1873C23.1737 25.8679 23.3334 25.4721 23.3334 24.9998C23.3334 24.5276 23.1737 24.1318 22.8542 23.8123C22.5348 23.4929 22.139 23.3332 21.6667 23.3332H18.3334C17.8612 23.3332 17.4654 23.4929 17.1459 23.8123C16.8265 24.1318 16.6667 24.5276 16.6667 24.9998C16.6667 25.4721 16.8265 25.8679 17.1459 26.1873C17.4654 26.5068 17.8612 26.6665 18.3334 26.6665ZM18.3334 19.9998H21.6667C22.139 19.9998 22.5348 19.8401 22.8542 19.5207C23.1737 19.2012 23.3334 18.8054 23.3334 18.3332C23.3334 17.8609 23.1737 17.4651 22.8542 17.1457C22.5348 16.8262 22.139 16.6665 21.6667 16.6665H18.3334C17.8612 16.6665 17.4654 16.8262 17.1459 17.1457C16.8265 17.4651 16.6667 17.8609 16.6667 18.3332C16.6667 18.8054 16.8265 19.2012 17.1459 19.5207C17.4654 19.8401 17.8612 19.9998 18.3334 19.9998Z" />
</svg>
