<svg viewBox="0 0 40 40" xmlns="http://www.w3.org/2000/svg">
<path d="M14.9997 29.1666V34.1666C14.9997 34.861 15.2427 35.4513 15.7288 35.9374C16.215 36.4235 16.8052 36.6666 17.4997 36.6666H22.4997C23.1941 36.6666 23.7844 36.4235 24.2705 35.9374C24.7566 35.4513 24.9997 34.861 24.9997 34.1666V29.1666C24.9997 28.4721 24.7566 27.8819 24.2705 27.3958C23.7844 26.9096 23.1941 26.6666 22.4997 26.6666H17.4997C16.8052 26.6666 16.215 26.9096 15.7288 27.3958C15.2427 27.8819 14.9997 28.4721 14.9997 29.1666ZM13.333 22.4999V17.4999C13.333 16.8055 13.09 16.2152 12.6038 15.7291C12.1177 15.243 11.5275 14.9999 10.833 14.9999H5.83301C5.13856 14.9999 4.54829 15.243 4.06217 15.7291C3.57606 16.2152 3.33301 16.8055 3.33301 17.4999V22.4999C3.33301 23.1944 3.57606 23.7846 4.06217 24.2708C4.54829 24.7569 5.13856 24.9999 5.83301 24.9999H10.833C11.5275 24.9999 12.1177 24.7569 12.6038 24.2708C13.09 23.7846 13.333 23.1944 13.333 22.4999ZM17.4997 24.9999H22.4997C23.1941 24.9999 23.7844 24.7569 24.2705 24.2708C24.7566 23.7846 24.9997 23.1944 24.9997 22.4999V17.4999C24.9997 16.8055 24.7566 16.2152 24.2705 15.7291C23.7844 15.243 23.1941 14.9999 22.4997 14.9999H17.4997C16.8052 14.9999 16.215 15.243 15.7288 15.7291C15.2427 16.2152 14.9997 16.8055 14.9997 17.4999V22.4999C14.9997 23.1944 15.2427 23.7846 15.7288 24.2708C16.215 24.7569 16.8052 24.9999 17.4997 24.9999ZM29.1663 24.9999H34.1663C34.8608 24.9999 35.4511 24.7569 35.9372 24.2708C36.4233 23.7846 36.6663 23.1944 36.6663 22.4999V17.4999C36.6663 16.8055 36.4233 16.2152 35.9372 15.7291C35.4511 15.243 34.8608 14.9999 34.1663 14.9999H29.1663C28.4719 14.9999 27.8816 15.243 27.3955 15.7291C26.9094 16.2152 26.6663 16.8055 26.6663 17.4999V22.4999C26.6663 23.1944 26.9094 23.7846 27.3955 24.2708C27.8816 24.7569 28.4719 24.9999 29.1663 24.9999ZM29.1663 13.3333H34.1663C34.8608 13.3333 35.4511 13.0902 35.9372 12.6041C36.4233 12.118 36.6663 11.5277 36.6663 10.8333V5.83325C36.6663 5.13881 36.4233 4.54853 35.9372 4.06242C35.4511 3.57631 34.8608 3.33325 34.1663 3.33325H29.1663C28.4719 3.33325 27.8816 3.57631 27.3955 4.06242C26.9094 4.54853 26.6663 5.13881 26.6663 5.83325V10.8333C26.6663 11.5277 26.9094 12.118 27.3955 12.6041C27.8816 13.0902 28.4719 13.3333 29.1663 13.3333Z"/>
</svg>
