<svg viewBox="0 0 37 37"  xmlns="http://www.w3.org/2000/svg">
<path d="M18.3333 36.6667C16.9444 36.6667 15.7639 36.1806 14.7917 35.2083C13.8194 34.2361 13.3333 33.0556 13.3333 31.6667C13.3333 31.2778 13.3681 30.9097 13.4375 30.5625C13.5069 30.2153 13.625 29.875 13.7917 29.5417L7.125 22.8333C6.79167 22.9722 6.44444 23.0903 6.08333 23.1875C5.72222 23.2847 5.34722 23.3333 4.95833 23.3333C3.56944 23.3333 2.39583 22.8472 1.4375 21.875C0.479167 20.9028 0 19.7222 0 18.3333C0 16.9444 0.479167 15.7639 1.4375 14.7917C2.39583 13.8194 3.56944 13.3333 4.95833 13.3333C6.04167 13.3333 7.01389 13.6458 7.875 14.2708C8.73611 14.8958 9.33333 15.6944 9.66667 16.6667H13.625C13.875 15.9444 14.2639 15.3264 14.7917 14.8125C15.3194 14.2986 15.9444 13.9167 16.6667 13.6667V9.70833C15.6944 9.375 14.8958 8.77778 14.2708 7.91667C13.6458 7.05556 13.3333 6.08333 13.3333 5C13.3333 3.61111 13.8194 2.43056 14.7917 1.45833C15.7639 0.486111 16.9444 0 18.3333 0C19.7222 0 20.9028 0.486111 21.875 1.45833C22.8472 2.43056 23.3333 3.61111 23.3333 5C23.3333 5.38889 23.2917 5.76389 23.2083 6.125C23.125 6.48611 23 6.83333 22.8333 7.16667L29.5 13.8333C29.8333 13.6667 30.1806 13.5417 30.5417 13.4583C30.9028 13.375 31.2778 13.3333 31.6667 13.3333C33.0556 13.3333 34.2361 13.8194 35.2083 14.7917C36.1806 15.7639 36.6667 16.9444 36.6667 18.3333C36.6667 19.7222 36.1806 20.9028 35.2083 21.875C34.2361 22.8472 33.0556 23.3333 31.6667 23.3333C30.5833 23.3333 29.6111 23.0208 28.75 22.3958C27.8889 21.7708 27.2917 20.9722 26.9583 20H23C22.75 20.7222 22.3681 21.3472 21.8542 21.875C21.3403 22.4028 20.7222 22.7917 20 23.0417V26.9583C20.9722 27.2917 21.7708 27.8889 22.3958 28.75C23.0208 29.6111 23.3333 30.5833 23.3333 31.6667C23.3333 33.0556 22.8472 34.2361 21.875 35.2083C20.9028 36.1806 19.7222 36.6667 18.3333 36.6667ZM16.6667 26.9583V23.0417C16.3056 22.9028 15.9722 22.7361 15.6667 22.5417C15.3611 22.3472 15.0764 22.1181 14.8125 21.8542C14.5486 21.5903 14.3194 21.3056 14.125 21C13.9306 20.6944 13.7639 20.3611 13.625 20H9.66667C9.66667 20.0278 9.65972 20.0625 9.64583 20.1042L9.60417 20.2292C9.59028 20.2708 9.57639 20.3056 9.5625 20.3333L9.5 20.4583L10.7083 21.6667C11.375 22.3333 12.0833 23.0486 12.8333 23.8125C13.5833 24.5764 14.2917 25.2917 14.9583 25.9583L16.1667 27.1667C16.2222 27.1389 16.2708 27.1181 16.3125 27.1042C16.3542 27.0903 16.3958 27.0694 16.4375 27.0417C16.4792 27.0139 16.5208 26.9931 16.5625 26.9792C16.6042 26.9653 16.6389 26.9583 16.6667 26.9583ZM23 16.6667H26.9583C26.9583 16.6111 26.9653 16.5625 26.9792 16.5208C26.9931 16.4792 27.0139 16.4375 27.0417 16.3958C27.0694 16.3542 27.0903 16.3125 27.1042 16.2708C27.1181 16.2292 27.1389 16.1944 27.1667 16.1667L25.9583 14.9583L23.8333 12.8333L21.7083 10.7083L20.5 9.5C20.4722 9.52778 20.4375 9.54861 20.3958 9.5625C20.3542 9.57639 20.3125 9.59722 20.2708 9.625C20.2292 9.65278 20.1875 9.67361 20.1458 9.6875C20.1042 9.70139 20.0556 9.70833 20 9.70833V13.6667C20.3333 13.7778 20.6597 13.9375 20.9792 14.1458C21.2986 14.3542 21.5833 14.5833 21.8333 14.8333C22.0833 15.0833 22.3125 15.3681 22.5208 15.6875C22.7292 16.0069 22.8889 16.3333 23 16.6667ZM31.6667 20C32.1389 20 32.5347 19.8403 32.8542 19.5208C33.1736 19.2014 33.3333 18.8056 33.3333 18.3333C33.3333 17.8611 33.1736 17.4653 32.8542 17.1458C32.5347 16.8264 32.1389 16.6667 31.6667 16.6667C31.1944 16.6667 30.7986 16.8264 30.4792 17.1458C30.1597 17.4653 30 17.8611 30 18.3333C30 18.8056 30.1597 19.2014 30.4792 19.5208C30.7986 19.8403 31.1944 20 31.6667 20ZM18.3333 20C18.8056 20 19.2014 19.8403 19.5208 19.5208C19.8403 19.2014 20 18.8056 20 18.3333C20 17.8611 19.8403 17.4653 19.5208 17.1458C19.2014 16.8264 18.8056 16.6667 18.3333 16.6667C17.8611 16.6667 17.4653 16.8264 17.1458 17.1458C16.8264 17.4653 16.6667 17.8611 16.6667 18.3333C16.6667 18.8056 16.8264 19.2014 17.1458 19.5208C17.4653 19.8403 17.8611 20 18.3333 20ZM18.3333 33.3333C18.8056 33.3333 19.2014 33.1736 19.5208 32.8542C19.8403 32.5347 20 32.1389 20 31.6667C20 31.1944 19.8403 30.7986 19.5208 30.4792C19.2014 30.1597 18.8056 30 18.3333 30C17.8611 30 17.4653 30.1597 17.1458 30.4792C16.8264 30.7986 16.6667 31.1944 16.6667 31.6667C16.6667 32.1389 16.8264 32.5347 17.1458 32.8542C17.4653 33.1736 17.8611 33.3333 18.3333 33.3333ZM5 20C5.47222 20 5.86806 19.8403 6.1875 19.5208C6.50694 19.2014 6.66667 18.8056 6.66667 18.3333C6.66667 17.8611 6.50694 17.4653 6.1875 17.1458C5.86806 16.8264 5.47222 16.6667 5 16.6667C4.52778 16.6667 4.13194 16.8264 3.8125 17.1458C3.49306 17.4653 3.33333 17.8611 3.33333 18.3333C3.33333 18.8056 3.49306 19.2014 3.8125 19.5208C4.13194 19.8403 4.52778 20 5 20ZM18.3333 6.66667C18.8056 6.66667 19.2014 6.50694 19.5208 6.1875C19.8403 5.86806 20 5.47222 20 5C20 4.52778 19.8403 4.13194 19.5208 3.8125C19.2014 3.49306 18.8056 3.33333 18.3333 3.33333C17.8611 3.33333 17.4653 3.49306 17.1458 3.8125C16.8264 4.13194 16.6667 4.52778 16.6667 5C16.6667 5.47222 16.8264 5.86806 17.1458 6.1875C17.4653 6.50694 17.8611 6.66667 18.3333 6.66667Z"/>
</svg>
