<svg viewBox="0 0 40 40"  xmlns="http://www.w3.org/2000/svg">
<path d="M1.66675 28.6667C1.66675 27.7223 1.9098 26.8542 2.39591 26.0626C2.88203 25.2709 3.52786 24.6667 4.33341 24.2501C6.05564 23.389 7.80564 22.7431 9.58342 22.3126C11.3612 21.882 13.1667 21.6667 15.0001 21.6667C16.8334 21.6667 18.639 21.882 20.4167 22.3126C22.1945 22.7431 23.9445 23.389 25.6667 24.2501C26.4723 24.6667 27.1181 25.2709 27.6042 26.0626C28.0904 26.8542 28.3334 27.7223 28.3334 28.6667V30.0001C28.3334 30.9167 28.007 31.7015 27.3542 32.3542C26.7015 33.007 25.9167 33.3334 25.0001 33.3334H5.00008C4.08341 33.3334 3.29869 33.007 2.64591 32.3542C1.99314 31.7015 1.66675 30.9167 1.66675 30.0001V28.6667ZM30.7501 33.3334C31.0556 32.8334 31.2848 32.2987 31.4376 31.7292C31.5904 31.1598 31.6667 30.5834 31.6667 30.0001V28.3334C31.6667 27.1112 31.3265 25.9376 30.6459 24.8126C29.9654 23.6876 29.0001 22.7223 27.7501 21.9167C29.1667 22.0834 30.5001 22.3681 31.7501 22.7709C33.0001 23.1737 34.1667 23.6667 35.2501 24.2501C36.2501 24.8056 37.014 25.4237 37.5417 26.1042C38.0695 26.7848 38.3334 27.5279 38.3334 28.3334V30.0001C38.3334 30.9167 38.007 31.7015 37.3542 32.3542C36.7015 33.007 35.9167 33.3334 35.0001 33.3334H30.7501ZM15.0001 20.0001C13.1667 20.0001 11.5973 19.3473 10.2917 18.0417C8.98619 16.7362 8.33342 15.1667 8.33342 13.3334C8.33342 11.5001 8.98619 9.93064 10.2917 8.62508C11.5973 7.31953 13.1667 6.66675 15.0001 6.66675C16.8334 6.66675 18.4029 7.31953 19.7084 8.62508C21.014 9.93064 21.6667 11.5001 21.6667 13.3334C21.6667 15.1667 21.014 16.7362 19.7084 18.0417C18.4029 19.3473 16.8334 20.0001 15.0001 20.0001ZM31.6667 13.3334C31.6667 15.1667 31.014 16.7362 29.7084 18.0417C28.4029 19.3473 26.8334 20.0001 25.0001 20.0001C24.6945 20.0001 24.3056 19.9654 23.8334 19.8959C23.3612 19.8265 22.9723 19.7501 22.6667 19.6667C23.4167 18.7779 23.9931 17.7917 24.3959 16.7084C24.7987 15.6251 25.0001 14.5001 25.0001 13.3334C25.0001 12.1667 24.7987 11.0417 24.3959 9.95841C23.9931 8.87508 23.4167 7.88897 22.6667 7.00008C23.0556 6.86119 23.4445 6.77091 23.8334 6.72925C24.2223 6.68758 24.6112 6.66675 25.0001 6.66675C26.8334 6.66675 28.4029 7.31953 29.7084 8.62508C31.014 9.93064 31.6667 11.5001 31.6667 13.3334Z" />
</svg>
